HIERARCHY
ROOT hip
{
	OFFSET 0.000000 0.000000 0.000000 
	CHANNELS 6 Xposition Yposition Zposition Xrotation Zrotation Yrotation
	JOINT abdomen
	{
		OFFSET 0.000000 3.402643 0.000000 
		CHANNELS 3 Xrotation Zrotation Yrotation
		JOINT chest
		{
			OFFSET 0.000000 8.438565 -0.680529 
			CHANNELS 3 Xrotation Zrotation Yrotation
			JOINT neck
			{
				OFFSET 0.000000 10.207942 -0.272212 
				CHANNELS 3 Xrotation Zrotation Yrotation
				JOINT head
				{
					OFFSET 0.000000 3.130431 0.000000 
					CHANNELS 3 Xrotation Zrotation Yrotation
					End Site
					{
						OFFSET 0.000000 3.130435 0.000000 
					}
				}
			}
			JOINT lCollar
			{
				OFFSET 3.470700 6.669187 -0.816635 
				CHANNELS 3 Yrotation Zrotation Xrotation
				JOINT lShldr
				{
					OFFSET 3.198488 0.000000 0.000000 
					CHANNELS 3 Zrotation Yrotation Xrotation
					JOINT lForeArm
					{
						OFFSET 10.139888 0.000000 0.000000 
						CHANNELS 3 Yrotation Zrotation Xrotation
						JOINT lHand
						{
							OFFSET 8.370511 0.000000 0.000000 
							CHANNELS 3 Zrotation Yrotation Xrotation
							End Site
							{
								OFFSET 4.083176 0.000000 0.000000 
							}
						}
					}
				}
			}
			JOINT rCollar
			{
				OFFSET -3.470700 6.669187 -0.816635 
				CHANNELS 3 Yrotation Zrotation Xrotation
				JOINT rShldr
				{
					OFFSET -3.198488 0.000000 0.000000 
					CHANNELS 3 Zrotation Yrotation Xrotation
					JOINT rForeArm
					{
						OFFSET -10.139888 0.000000 0.000000 
						CHANNELS 3 Yrotation Zrotation Xrotation
						JOINT rHand
						{
							OFFSET -8.370511 0.000000 0.000000 
							CHANNELS 3 Zrotation Yrotation Xrotation
							End Site
							{
								OFFSET -4.083176 0.000000 0.000000 
							}
						}
					}
				}
			}
		}
	}
	JOINT lThigh
	{
		OFFSET 5.308129 -1.633274 1.361059 
		CHANNELS 3 Xrotation Zrotation Yrotation
		JOINT lShin
		{
			OFFSET -2.041588 -20.007561 0.000000 
			CHANNELS 3 Xrotation Zrotation Yrotation
			JOINT lFoot
			{
				OFFSET 0.000000 -19.190928 -1.224953 
				CHANNELS 3 Xrotation Yrotation Zrotation
				End Site
				{
					OFFSET 0.000000 -2.449906 4.627600 
				}
			}
		}
	}
	JOINT rThigh
	{
		OFFSET -5.308129 -1.633274 1.361059 
		CHANNELS 3 Xrotation Zrotation Yrotation
		JOINT rShin
		{
			OFFSET 2.041588 -20.007561 0.000000 
			CHANNELS 3 Xrotation Zrotation Yrotation
			JOINT rFoot
			{
				OFFSET 0.000000 -19.190928 -1.224953 
				CHANNELS 3 Xrotation Yrotation Zrotation
				End Site
				{
					OFFSET 0.000000 -2.449906 4.627600 
				}
			}
		}
	}
}
MOTION
Frames: 14
Frame Time: 0.033333
-7.099637 51.545311 25.626675 -6.787109 9.775391 -131.406235 29.822811 -7.874106 -5.629282 -11.210938 16.718750 4.482423 51.063168 8.107644 2.471410 -93.476563 -11.289062 22.585978 2.000000 -2.000000 0.000000 -12.304688 -25.644531 -68.851883 -93.794601 -0.069643 -2.926332 24.027065 27.973131 -7.760509 -2.000000 2.000000 0.000000 74.589844 21.699221 18.919628 123.576683 -2.233147 -2.688323 -61.422737 -49.849216 29.917150 -24.022335 13.338929 16.088310 25.991413 -4.780675 -2.401810 -3.351992 7.236765 -1.940995 -19.411507 -16.759836 -29.819738 30.403654 4.374135 2.485356 2.060942 -0.929433 5.465796 
-7.055709 51.553192 25.644844 -6.787109 9.775391 -131.406235 29.822811 -7.874106 -5.629282 -11.416015 16.582033 4.368021 51.063168 8.107644 2.471410 -93.437500 -11.152344 22.480469 2.000000 -2.000000 0.000000 -12.373047 -25.849611 -69.252304 -93.780754 0.104567 -2.789766 23.833025 27.812201 -7.804849 -2.000000 2.000000 0.000000 71.816406 20.195314 18.948687 126.932838 -2.346612 -2.587739 -62.146076 -48.310432 28.263172 -24.022333 13.338933 16.088308 25.991413 -4.780675 -2.401810 -3.111031 7.049512 -2.138052 -19.411453 -16.769541 -29.624825 30.403654 4.374133 2.485356 2.309542 -0.951639 5.486486 
-6.989716 51.537430 25.702702 -6.796875 9.589845 -131.394867 29.822811 -7.874106 -5.629282 -11.826172 16.289064 4.335938 51.063168 8.107644 2.471410 -93.183594 -10.966796 22.558596 2.000000 -2.000000 0.000000 -12.763671 -25.488281 -69.603813 -93.970657 -0.060458 -2.936643 23.479084 27.608477 -7.846519 -2.000000 2.000000 0.000000 67.919922 18.125000 19.208982 131.319519 -2.498966 -2.322799 -63.901283 -46.161797 25.747568 -23.997660 13.353017 16.260651 26.009720 -4.785955 -2.423979 -3.099230 7.130578 -2.274113 -19.589424 -16.756498 -30.143448 30.200808 3.925170 2.686881 2.309403 -0.801873 5.788480 
-6.929312 51.529549 25.787058 -6.796875 9.589845 -131.570648 29.822811 -7.874106 -5.629282 -12.597656 15.859373 4.150391 51.063168 8.107644 2.471410 -92.939453 -10.742187 22.636719 2.000000 -2.000000 0.000000 -12.871094 -25.458986 -69.535446 -93.970657 -0.060458 -2.936643 23.370077 27.449629 -7.680192 -2.000000 2.000000 0.000000 64.775391 16.679688 19.472656 135.187714 -2.622868 -2.378894 -65.444511 -44.463345 23.764658 -23.997658 13.353018 16.260651 26.009718 -4.785971 -2.423982 -2.992892 7.062065 -2.350517 -19.753540 -16.555899 -29.573999 30.401844 4.393332 2.470756 1.958640 -1.149665 5.543347 
-6.841668 51.521683 25.882175 -6.796875 9.589845 -131.570648 29.822811 -7.874106 -5.629282 -13.388673 15.244141 4.101562 51.063168 8.107644 2.471410 -92.490234 -10.449219 22.548828 2.000000 -2.000000 0.000000 -13.339845 -25.371096 -69.042969 -93.970657 -0.060458 -2.936643 23.114647 27.433947 -7.872677 -2.000000 2.000000 0.000000 63.603516 16.396486 19.902344 136.416992 -2.664133 -2.342178 -66.996696 -44.000473 23.274502 -24.163090 13.303422 16.597523 26.172031 -4.765899 -2.433526 -3.449651 6.973040 -2.351711 -19.948824 -16.595028 -29.396133 30.403654 4.374133 2.485356 2.134083 -1.293019 5.293614 
-6.756640 51.505920 25.975103 -6.796875 9.589845 -131.570648 29.822811 -7.874106 -5.629282 -14.365235 14.658204 3.837891 51.063168 8.107644 2.471410 -92.021484 -10.146483 22.675781 2.000000 -2.000000 0.000000 -13.730470 -24.970703 -68.369141 -93.970383 -0.050144 -2.927463 23.114647 27.433947 -7.872677 -2.000000 2.000000 0.000000 65.615234 17.089844 19.993105 134.138855 -2.602132 -2.231453 -67.035820 -45.217251 24.630709 -24.158504 13.299193 16.784334 26.181229 -4.770275 -2.434458 -3.217538 7.111418 -2.307311 -20.134481 -16.624704 -29.375244 30.403654 4.374131 2.485356 2.244404 -1.176885 5.365339 
-6.673855 51.498043 26.069061 -6.796875 9.589845 -131.570648 29.822811 -7.874106 -5.629282 -15.146484 14.033203 3.840259 51.063168 8.107644 2.471410 -91.621094 -9.970702 22.734146 2.000000 -2.000000 0.000000 -14.179688 -24.619141 -67.744141 -93.794601 -0.059894 -2.926898 23.035179 27.559114 -8.425580 -2.000000 2.000000 0.000000 69.160156 18.867189 20.195313 130.094498 -2.458382 -2.516010 -67.028778 -47.568214 27.292356 -24.320843 13.285636 16.940559 26.171301 -4.770234 -2.433636 -3.309224 7.146354 -2.055658 -20.330681 -16.646778 -29.189907 30.403624 4.369115 2.503513 1.880343 -1.318621 5.441681 
-6.617860 51.490162 26.144978 -6.796875 9.589845 -131.570648 29.822811 -7.874106 -5.629282 -15.898437 13.554688 3.703461 51.063168 8.107644 2.471410 -91.367188 -9.746094 22.822266 2.000000 -2.000000 0.000000 -14.775392 -24.384766 -66.562500 -93.618553 -0.049580 -2.917718 23.381203 27.713652 -8.408266 -2.000000 2.000000 0.000000 73.339844 20.751951 20.501507 124.991219 -2.294471 -2.642987 -67.208832 -49.959770 30.692564 -24.314201 13.288868 17.106346 26.181545 -4.770353 -2.424758 -3.141235 7.242366 -2.025297 -20.330679 -16.646778 -29.189907 30.403624 4.369114 2.503512 2.467214 -1.481220 5.815527 
-6.558080 51.490162 26.204107 -6.796875 9.589845 -131.570648 29.822811 -7.874106 -5.629282 -16.289064 13.251953 3.535156 51.063168 8.107644 2.471410 -91.132813 -9.521484 22.742525 2.000000 -2.000000 0.000000 -15.126953 -24.228516 -65.556641 -93.442764 -0.069078 -2.916587 23.224806 27.876093 -8.762141 -2.000000 2.000000 0.000000 77.285156 22.988279 20.761719 120.086159 -1.931364 -2.495145 -67.191917 -52.547230 34.003750 -24.498478 13.287592 17.076099 25.830856 -4.790019 -2.390772 -2.789290 7.316955 -2.247073 -20.516657 -16.677265 -29.149544 30.403654 4.374131 2.485356 2.572365 -1.368240 5.885847 
-6.535989 51.498043 26.228172 -6.796875 9.589845 -131.570648 29.822811 -7.874106 -5.629282 -16.484375 13.095703 3.625260 51.063168 8.107644 2.471410 -91.132813 -9.521484 22.742525 2.000000 -2.000000 0.000000 -15.039063 -24.140625 -65.209076 -93.442764 -0.069078 -2.916587 23.579224 28.060202 -8.730303 -2.000000 2.000000 0.000000 80.302734 24.550781 21.152342 116.391434 -1.791607 -2.711615 -67.741356 -54.078796 36.789742 -24.498480 13.287587 17.076101 25.830856 -4.790019 -2.390772 -2.632577 7.305259 -2.081386 -20.516659 -16.677265 -29.149544 30.403654 4.374130 2.485356 2.572363 -1.368241 5.885847 
-6.548127 51.505920 26.188135 -6.972656 9.590037 -131.580994 29.822811 -7.874106 -5.629282 -15.917970 13.398438 3.662110 51.063168 8.107644 2.471410 -91.552734 -9.697265 22.851564 2.000000 -2.000000 0.000000 -14.335937 -24.560547 -64.652496 -93.433815 0.104716 -2.956004 24.032631 28.100262 -8.527274 -2.000000 2.000000 0.000000 81.132813 25.703123 21.923828 114.634834 -1.721101 -2.746639 -68.722504 -54.595329 37.939442 -24.498476 13.287592 17.076099 25.830858 -4.790013 -2.390771 -2.613968 7.374175 -2.244407 -20.516663 -16.677263 -29.149548 30.403654 4.374132 2.485356 2.220004 -1.685500 5.682141 
-6.603510 51.505920 26.105976 -6.972656 9.590037 -131.580994 29.822811 -7.874106 -5.629282 -14.970704 13.847657 3.652344 51.063168 8.107644 2.471410 -92.167969 -9.970702 22.937763 2.000000 -2.000000 0.000000 -13.037110 -25.585938 -64.404297 -93.443039 -0.069643 -2.926332 24.728233 27.970615 -7.764655 -2.000000 2.000000 0.000000 80.361328 26.142578 22.572664 114.283295 -1.711352 -2.746074 -69.484962 -54.314808 37.486214 -24.314207 13.288861 17.106344 26.181547 -4.770347 -2.424757 -3.100524 7.241591 -2.027711 -20.330683 -16.646774 -29.189909 30.403620 4.369120 2.503514 2.331595 -1.728188 5.863369 
-6.675635 51.521683 25.997437 -6.972656 9.590037 -131.580994 29.822811 -7.874106 -5.629282 -13.642579 14.589846 3.847657 51.063168 8.107644 2.471410 -93.183594 -10.253904 23.027344 2.000000 -2.000000 0.000000 -11.845703 -26.250000 -64.779709 -93.438408 -0.079539 -2.759528 25.361353 28.025473 -7.150174 -2.000000 2.000000 0.000000 79.443359 26.640625 22.470705 114.634834 -1.721101 -2.746639 -68.874916 -53.730766 36.683022 -24.176512 13.151187 16.997923 25.982664 -4.769812 -2.418124 -3.175532 7.459272 -2.081104 -20.134476 -16.624706 -29.375244 30.403654 4.374131 2.485356 2.461837 -1.458594 5.802976 
-6.756131 51.545311 25.869219 -6.972656 9.590037 -131.580994 29.822811 -7.874106 -5.629282 -12.089845 15.468749 4.179688 51.063168 8.107644 2.471410 -94.052734 -10.712890 23.076174 2.000000 -2.000000 0.000000 -10.966796 -26.386721 -66.537544 -93.443039 -0.079392 -2.925767 25.074078 27.822876 -7.395121 -2.000000 2.000000 0.000000 78.925781 26.699219 21.484375 115.337364 -1.751479 -2.728844 -66.083107 -53.201283 35.351662 -24.007124 13.137897 16.843353 25.995110 -4.691972 -2.421947 -3.237887 7.162794 -2.020800 -19.948826 -16.595028 -29.396137 30.403654 4.374130 2.485355 2.160083 -1.717053 5.847486 
